<?xml version="1.0" standalone="no"?>
<!DOCTYPE svg PUBLIC "-//W3C//DTD SVG 20010904//EN"
 "http://www.w3.org/TR/2001/REC-SVG-20010904/DTD/svg10.dtd">
<svg version="1.0" xmlns="http://www.w3.org/2000/svg"
 width="500.000000pt" height="500.000000pt" viewBox="0 0 500.000000 500.000000"
 preserveAspectRatio="xMidYMid meet">

<g transform="translate(0.000000,500.000000) scale(0.100000,-0.100000)"
fill="#000000" stroke="none">
<path d="M1410 3172 c-31 -4 -50 -25 -119 -127 -30 -44 -115 -169 -189 -279
-101 -150 -133 -204 -129 -222 2 -13 1 -21 -3 -19 -8 5 -13 -35 -25 -187 -7
-81 -5 -84 35 -78 30 4 216 116 250 150 19 19 91 119 159 220 68 102 127 187
131 190 4 3 15 21 26 40 10 19 24 39 31 45 6 5 21 29 33 52 18 35 20 47 11 81
-12 44 -26 58 -96 99 -57 33 -79 40 -115 35z m63 -83 c12 -7 24 -15 27 -18 3
-3 14 -11 25 -17 27 -15 31 -64 7 -94 l-18 -23 -67 49 c-37 26 -67 51 -67 56
0 5 7 20 16 33 18 27 43 31 77 14z m-110 -123 c9 -7 17 -19 17 -27 0 -8 -59
-97 -130 -199 -72 -102 -131 -189 -133 -195 -2 -5 -16 -2 -31 8 -15 10 -26 22
-24 27 7 20 269 400 276 400 4 0 15 -7 25 -14z m101 -71 c17 -13 17 -16 -15
-62 -19 -26 -36 -50 -39 -53 -3 -3 -50 -71 -104 -152 -55 -82 -103 -148 -108
-148 -13 0 -38 26 -38 40 0 6 34 59 75 118 42 59 101 144 132 190 31 45 61 82
67 82 6 0 19 -7 30 -15z m-362 -419 l57 -43 -22 -21 c-27 -25 -93 -62 -110
-62 -10 0 -11 17 -6 73 4 39 8 78 8 85 1 19 12 15 73 -32z"/>
<path d="M567 3005 c-15 -15 -27 -36 -27 -45 0 -13 -11 -19 -46 -23 -87 -9
-84 5 -84 -407 0 -344 1 -361 20 -380 18 -18 32 -19 197 -17 202 2 252 -9 325
-69 22 -19 43 -34 47 -34 4 0 27 12 52 28 55 34 83 47 134 63 40 13 184 17
307 10 51 -3 73 0 92 13 l25 16 0 325 c0 178 -3 326 -8 329 -6 4 -25 -9 -53
-37 -1 -1 -5 -130 -8 -287 -5 -278 -6 -285 -25 -282 -11 1 -65 5 -120 9 -133
8 -228 -9 -320 -56 l-70 -37 -18 37 c-20 42 -57 73 -135 114 -49 25 -76 34
-162 54 -55 13 -70 22 -75 45 -3 11 -4 147 -3 301 l3 280 35 -3 c158 -16 340
-115 340 -186 0 -31 20 -25 45 14 24 38 36 54 79 103 31 37 49 67 43 74 -14
13 -61 -11 -99 -51 l-41 -43 -33 32 c-26 26 -130 87 -154 91 -3 0 -29 8 -59
17 -29 9 -81 20 -115 23 -57 6 -63 5 -89 -21z m-27 -396 c0 -311 1 -314 100
-339 25 -7 56 -16 70 -20 14 -5 38 -11 54 -15 15 -3 26 -8 24 -10 -2 -3 -58
-7 -124 -10 -65 -4 -132 -7 -149 -8 l-30 -2 -3 320 c-1 176 0 325 3 332 2 7
16 13 30 13 l25 0 0 -261z"/>
<path d="M1798 2944 c-5 -4 -8 -99 -8 -212 l0 -204 120 4 c114 4 122 6 162 34
55 38 85 84 94 140 14 95 -46 199 -131 224 -49 14 -227 25 -237 14z m220 -94
c37 -23 72 -75 72 -108 0 -38 -38 -101 -72 -118 -18 -9 -58 -17 -88 -18 l-55
-1 -3 119 c-1 66 0 126 2 133 8 21 105 17 144 -7z"/>
<path d="M2291 2818 c-57 -39 -74 -70 -75 -136 -1 -50 4 -65 27 -96 48 -62
128 -82 196 -48 48 24 61 47 36 66 -17 12 -23 12 -47 0 -42 -22 -85 -18 -113
11 -14 13 -25 29 -25 35 0 6 41 10 111 10 l112 0 -6 49 c-3 27 -11 58 -18 69
-19 30 -63 52 -116 58 -40 5 -54 2 -82 -18z m125 -63 c14 -14 22 -30 19 -35
-8 -13 -132 -13 -140 0 -13 21 35 58 78 59 10 1 29 -10 43 -24z"/>
<path d="M2602 2820 c-39 -24 -52 -54 -41 -93 12 -43 23 -52 79 -67 55 -15 75
-32 66 -55 -8 -22 -68 -19 -98 5 l-25 19 -24 -25 c-24 -25 -24 -26 -4 -41 61
-47 127 -54 186 -21 30 17 40 30 45 57 11 56 -11 82 -86 108 -49 16 -66 26
-68 42 -5 29 37 37 83 16 19 -10 37 -16 38 -14 1 2 10 14 21 26 18 21 17 22
-14 38 -53 27 -119 29 -158 5z"/>
<path d="M2907 2818 c-42 -25 -77 -86 -77 -136 0 -146 181 -218 269 -106 27
35 27 40 -7 52 -23 8 -32 6 -57 -15 -54 -47 -125 -8 -125 69 0 72 74 114 120
68 20 -20 74 -27 85 -11 10 18 -17 59 -55 80 -48 27 -105 26 -153 -1z"/>
<path d="M3245 2825 c-55 -24 -94 -90 -90 -150 1 -16 3 -38 4 -47 2 -26 50
-77 88 -93 46 -19 81 -19 129 1 72 30 103 89 91 175 -13 100 -125 157 -222
114z m119 -77 c78 -69 -10 -202 -93 -141 -49 37 -53 102 -9 143 29 26 71 25
102 -2z"/>
<path d="M3643 2828 c-13 -6 -23 -15 -23 -20 0 -4 -4 -8 -10 -8 -5 0 -10 7
-10 15 0 10 -11 15 -35 15 l-35 0 0 -150 0 -150 35 0 35 0 0 98 c0 85 3 101
20 120 27 28 65 28 84 0 12 -17 16 -48 16 -120 l0 -98 40 0 40 0 0 100 c0 87
3 103 20 120 26 26 54 25 80 -2 17 -19 20 -35 20 -120 l0 -98 35 0 35 0 0 123
c0 117 -1 123 -25 149 -14 15 -37 31 -50 34 -37 9 -90 -4 -110 -26 -18 -20
-18 -20 -41 1 -26 24 -89 34 -121 17z"/>
<path d="M4173 2821 c-27 -17 -33 -18 -33 -6 0 11 -11 15 -39 15 l-40 0 0
-215 0 -215 39 0 40 0 0 75 c0 41 3 75 8 75 4 -1 18 -7 32 -15 114 -65 242 88
181 215 -27 56 -59 80 -114 86 -31 4 -50 0 -74 -15z m95 -71 c17 -16 22 -32
22 -70 0 -41 -4 -52 -26 -69 -15 -12 -37 -21 -49 -21 -12 0 -34 9 -49 21 -22
17 -26 28 -26 69 0 41 4 52 26 69 34 27 74 27 102 1z"/>
<path d="M4420 2685 l0 -35 85 0 85 0 0 35 0 35 -85 0 -85 0 0 -35z"/>
<path d="M1956 2454 c-9 -8 -16 -22 -16 -29 0 -20 28 -45 50 -45 28 0 49 26
42 52 -9 40 -48 51 -76 22z"/>
<path d="M1797 2454 c-4 -4 -7 -101 -7 -216 l0 -208 45 0 45 0 -2 213 -3 212
-35 3 c-20 2 -39 0 -43 -4z"/>
<path d="M3340 2380 c0 -44 -4 -80 -8 -80 -5 0 -17 7 -28 15 -11 8 -41 14 -71
15 -44 0 -58 -5 -88 -31 -87 -77 -61 -238 44 -270 45 -13 103 -5 121 16 16 20
41 19 34 0 -5 -12 2 -15 30 -15 l36 0 0 215 0 215 -35 0 -35 0 0 -80z m-36
-133 c42 -42 45 -84 10 -126 -34 -41 -80 -42 -118 -5 -32 33 -34 75 -5 115 17
24 28 29 60 29 22 0 46 -6 53 -13z"/>
<path d="M1950 2180 l0 -150 40 0 40 0 0 150 0 150 -40 0 -40 0 0 -150z"/>
<path d="M2138 2299 c-84 -68 -70 -212 25 -260 71 -37 164 -14 198 49 11 19
11 25 -1 32 -24 15 -49 12 -72 -10 -50 -47 -128 -5 -128 68 0 72 87 112 132
60 15 -18 23 -20 45 -12 39 13 38 28 -2 68 -33 34 -40 36 -98 36 -55 0 -67 -4
-99 -31z"/>
<path d="M2448 2301 l-33 -30 22 -22 c21 -22 23 -22 41 -5 29 25 85 32 105 11
29 -29 20 -43 -30 -50 -105 -14 -143 -40 -143 -96 0 -41 10 -58 41 -74 40 -21
92 -19 123 6 21 17 26 18 26 5 0 -12 10 -16 40 -16 l40 0 0 99 c0 159 -29 201
-139 201 -53 0 -65 -4 -93 -29z m152 -148 c-1 -50 -53 -93 -89 -74 -21 12 -34
38 -25 53 14 22 114 40 114 21z"/>
<path d="M2740 2180 l0 -150 40 0 40 0 0 93 c0 113 12 137 69 137 53 0 61 -13
61 -96 0 -39 3 -86 6 -103 6 -27 10 -31 40 -31 l34 0 0 111 c0 114 -7 142 -44
171 -32 26 -113 24 -143 -4 -22 -20 -29 -16 -24 15 0 4 -17 7 -39 7 l-40 0 0
-150z"/>
<path d="M3538 2315 c-44 -24 -68 -74 -68 -143 0 -57 3 -64 38 -101 29 -30 47
-41 84 -46 91 -14 153 20 184 100 14 38 15 51 5 87 -15 51 -25 66 -68 96 -37
26 -132 30 -175 7z m156 -96 c52 -97 -70 -181 -131 -90 -28 42 -29 57 -3 99
19 31 24 33 68 30 42 -3 49 -6 66 -39z"/>
</g>
</svg>
